<svg width="20" height="20" viewBox="0 0 20 20" fill="none" xmlns="http://www.w3.org/2000/svg">
<g clip-path="url(#clip0_522_592)">
<path d="M11.6667 5C11.6667 4.54 12.04 4.16667 12.5 4.16667H15.8333C16.2933 4.16667 16.6667 4.54 16.6667 5C16.6667 5.46 16.2933 5.83333 15.8333 5.83333H12.5C12.04 5.83333 11.6667 5.46 11.6667 5ZM8.75 6.25C8.75 5.09917 7.8175 4.16667 6.66667 4.16667C5.51583 4.16667 4.58333 5.09917 4.58333 6.25C4.58333 7.40083 5.51583 8.33333 6.66667 8.33333C7.8175 8.33333 8.75 7.40083 8.75 6.25ZM15.8333 0H4.16667C1.86917 0 0 1.86917 0 4.16667V12.5C0 14.7975 1.86917 16.6667 4.16667 16.6667H9.16667C9.62667 16.6667 10 16.2933 10 15.8333C10 15.3733 9.62667 15 9.16667 15H4.16667C2.78833 15 1.66667 13.8783 1.66667 12.5V4.16667C1.66667 2.78833 2.78833 1.66667 4.16667 1.66667H15.8333C17.2117 1.66667 18.3333 2.78833 18.3333 4.16667V7.91667C18.3333 8.37667 18.7067 8.75 19.1667 8.75C19.6267 8.75 20 8.37667 20 7.91667V4.16667C20 1.86917 18.1308 0 15.8333 0ZM3.38583 11.3742C3.22417 11.8058 3.4425 12.2858 3.87333 12.4475C4.30417 12.6092 4.785 12.3908 4.94667 11.96C5.19917 11.2867 5.89 10.8342 6.66583 10.8342C7.44167 10.8342 8.13333 11.2867 8.385 11.96C8.54583 12.395 9.03833 12.6083 9.45833 12.4475C9.88917 12.2858 10.1075 11.8058 9.94583 11.3742C9.45083 10.0542 8.1325 9.16667 6.665 9.16667C5.1975 9.16667 3.87917 10.0533 3.38417 11.3742H3.38583ZM20 12.5058V15.0333C20 18.0767 17.1683 19.4533 16.3 19.8025C16.1567 19.8633 16.0358 19.925 15.8342 19.925C15.6325 19.925 15.4708 19.8475 15.3125 19.7625C14.4575 19.335 11.6667 17.7308 11.6667 15.0333V12.5058C11.6667 11.6058 12.24 10.8117 13.0942 10.5283L15.5717 9.7075C15.7417 9.65167 15.9258 9.65167 16.0958 9.7075L18.5725 10.5283C19.4267 10.8117 20 11.6058 20 12.5058ZM18.3333 12.5058C18.3333 12.3258 18.2183 12.1667 18.0475 12.11L15.8333 11.3758L13.6183 12.11C13.4475 12.1667 13.3333 12.3258 13.3333 12.5058V15.0333C13.3333 16.6408 15.1717 17.7933 15.8708 18.1742C16.64 17.8275 18.3333 16.8583 18.3333 15.0333V12.5058ZM12.5 9.16667H14.1667C14.6267 9.16667 15 8.79333 15 8.33333C15 7.87333 14.6267 7.5 14.1667 7.5H12.5C12.04 7.5 11.6667 7.87333 11.6667 8.33333C11.6667 8.79333 12.04 9.16667 12.5 9.16667Z" fill="#1F4E5F"/>
</g>
<defs>
<clipPath id="clip0_522_592">
<rect width="20" height="20" fill="white"/>
</clipPath>
</defs>
</svg>
