<svg width="22" height="22" viewBox="0 0 22 22" fill="none" xmlns="http://www.w3.org/2000/svg">
<g clip-path="url(#clip0_522_590)">
<path d="M21.0833 14.6667H20.7662L20.5957 13.2147C20.3234 10.9074 18.3663 9.16667 16.0435 9.16667H5.9565C3.63367 9.16667 1.67658 10.9065 1.40433 13.2147L1.23383 14.6667H0.916667C0.40975 14.6667 0 15.0773 0 15.5833C0 16.0893 0.40975 16.5 0.916667 16.5H1.23383L1.40433 17.952C1.67658 20.2593 3.63367 22 5.9565 22H16.0435C18.3663 22 20.3234 20.2602 20.5957 17.952L20.7662 16.5H21.0833C21.5903 16.5 22 16.0893 22 15.5833C22 15.0773 21.5903 14.6667 21.0833 14.6667ZM3.22575 13.4292C3.38892 12.0441 4.56317 11 5.9565 11H16.0435C17.4378 11 18.612 12.0441 18.7743 13.4283L18.92 14.6667H3.08L3.22575 13.4292ZM16.0435 20.1667H5.9565C4.56225 20.1667 3.388 19.1226 3.22575 17.7384L3.08 16.5H8.45167L8.56258 16.9446C8.767 17.7623 9.4985 18.3333 10.3409 18.3333H11.6591C12.5024 18.3333 13.2339 17.7623 13.4374 16.9446L13.5483 16.5H18.92L18.7743 17.7375C18.6111 19.1226 17.4368 20.1667 16.0435 20.1667ZM7.33333 7.33333C9.03742 7.33333 10.4601 6.16 10.8698 4.58333H19.25C19.7569 4.58333 20.1667 4.17267 20.1667 3.66667C20.1667 3.16067 19.7569 2.75 19.25 2.75H10.8698C10.4601 1.17333 9.03742 0 7.33333 0C5.44408 0 1.83333 1.42817 1.83333 3.66667C1.83333 5.90517 5.44408 7.33333 7.33333 7.33333ZM7.33333 1.83333C8.34442 1.83333 9.16667 2.65558 9.16667 3.66667C9.16667 4.67775 8.34442 5.5 7.33333 5.5C5.96292 5.5 3.66667 4.35233 3.66667 3.66667C3.66667 2.981 5.96292 1.83333 7.33333 1.83333Z" fill="#1F4E5F"/>
</g>
<defs>
<clipPath id="clip0_522_590">
<rect width="22" height="22" fill="white"/>
</clipPath>
</defs>
</svg>
