<svg width="20" height="20" viewBox="0 0 20 20" fill="none" xmlns="http://www.w3.org/2000/svg">
<g clip-path="url(#clip0_522_749)">
<path d="M15 6.66667C16.8383 6.66667 18.3333 5.17167 18.3333 3.33333C18.3333 1.495 16.8383 0 15 0C13.1617 0 11.6667 1.495 11.6667 3.33333C11.6667 5.17167 13.1617 6.66667 15 6.66667ZM15 1.66667C15.9192 1.66667 16.6667 2.41417 16.6667 3.33333C16.6667 4.2525 15.9192 5 15 5C14.0808 5 13.3333 4.2525 13.3333 3.33333C13.3333 2.41417 14.0808 1.66667 15 1.66667ZM6.66667 9.16667C6.66667 11.005 8.16167 12.5 10 12.5C11.8383 12.5 13.3333 11.005 13.3333 9.16667C13.3333 7.32833 11.8383 5.83333 10 5.83333C8.16167 5.83333 6.66667 7.32833 6.66667 9.16667ZM10 7.5C10.9192 7.5 11.6667 8.2475 11.6667 9.16667C11.6667 10.0858 10.9192 10.8333 10 10.8333C9.08083 10.8333 8.33333 10.0858 8.33333 9.16667C8.33333 8.2475 9.08083 7.5 10 7.5ZM5 6.66667C6.83833 6.66667 8.33333 5.17167 8.33333 3.33333C8.33333 1.495 6.83833 0 5 0C3.16167 0 1.66667 1.495 1.66667 3.33333C1.66667 5.17167 3.16167 6.66667 5 6.66667ZM5 1.66667C5.91917 1.66667 6.66667 2.41417 6.66667 3.33333C6.66667 4.2525 5.91917 5 5 5C4.08083 5 3.33333 4.2525 3.33333 3.33333C3.33333 2.41417 4.08083 1.66667 5 1.66667ZM19.1667 18.3333H15C15 15.5758 12.7575 13.3333 10 13.3333C7.2425 13.3333 5 15.5758 5 18.3333H0.833333C0.3725 18.3333 0 18.7058 0 19.1667C0 19.6275 0.3725 20 0.833333 20H19.1667C19.6275 20 20 19.6275 20 19.1667C20 18.7058 19.6275 18.3333 19.1667 18.3333ZM10 15C11.8383 15 13.3333 16.495 13.3333 18.3333H6.66667C6.66667 16.495 8.16167 15 10 15ZM20 13.3333C20 13.7942 19.6275 14.1667 19.1667 14.1667C18.7058 14.1667 18.3333 13.7942 18.3333 13.3333C18.3333 11.7317 17.1875 10.2917 15.6675 9.98333C15.2167 9.89167 14.925 9.45167 15.0167 9C15.1083 8.55 15.5442 8.26167 16 8.34917C18.3175 8.81917 20.0008 10.9158 20.0008 13.3325L20 13.3333ZM0 13.3333C0 10.9167 1.68333 8.82 4.00083 8.35C4.45917 8.265 4.89167 8.55083 4.98417 9.00083C5.075 9.4525 4.78417 9.89167 4.33333 9.98417C2.81333 10.2917 1.6675 11.7325 1.6675 13.3342C1.6675 13.795 1.295 14.1675 0.834167 14.1675C0.373333 14.1675 0.000833333 13.795 0.000833333 13.3342L0 13.3333Z" fill="#1F4E5F"/>
</g>
<defs>
<clipPath id="clip0_522_749">
<rect width="20" height="20" fill="white"/>
</clipPath>
</defs>
</svg>
